HIERARCHY
ROOT Hips
{
	OFFSET 0.00000 0.00000 0.00000
	CHANNELS 6 Xposition Yposition Zposition Zrotation Yrotation Xrotation 
	JOINT LHipJoint
	{
		OFFSET 0 0 0
		CHANNELS 3 Zrotation Yrotation Xrotation
		JOINT LeftHip
		{
			OFFSET 1.37590 -1.78394 0.89329
			CHANNELS 3 Zrotation Yrotation Xrotation
			JOINT LeftKnee
			{
				OFFSET 2.47928 -6.81178 0.00000
				CHANNELS 3 Zrotation Yrotation Xrotation
				JOINT LeftAnkle
				{
					OFFSET 2.63345 -7.23535 0.00000
					CHANNELS 3 Zrotation Yrotation Xrotation
					JOINT LeftToe
					{
						OFFSET 0.23938 -0.65768 2.27012
						CHANNELS 3 Zrotation Yrotation Xrotation
						End Site
						{
							OFFSET 0.00000 -0.00000 1.18363
						}
					}
				}
			}
		}
	}
	JOINT RHipJoint
	{
		OFFSET 0 0 0
		CHANNELS 3 Zrotation Yrotation Xrotation
		JOINT RightHip
		{
			OFFSET -1.33617 -1.78394 0.89329
			CHANNELS 3 Zrotation Yrotation Xrotation
			JOINT RightKnee
			{
				OFFSET -2.56922 -7.05888 0.00000
				CHANNELS 3 Zrotation Yrotation Xrotation
				JOINT RightAnkle
				{
					OFFSET -2.56568 -7.04915 0.00000
					CHANNELS 3 Zrotation Yrotation Xrotation
					JOINT RightToe
					{
						OFFSET -0.27533 -0.75646 2.18105
						CHANNELS 3 Zrotation Yrotation Xrotation
						End Site
						{
							OFFSET -0.00000 -0.00000 1.15233
						}
					}
				}
			}
		}
	}
	JOINT lowerback
	{
		OFFSET 0 0 0
		CHANNELS 3 Zrotation Yrotation Xrotation
		JOINT Chest
		{
			OFFSET 0.06190 2.15152 -0.00935
			CHANNELS 3 Zrotation Yrotation Xrotation
			JOINT Chest2
			{
				OFFSET 0.06334 2.15332 0.00872
				CHANNELS 3 Zrotation Yrotation Xrotation
				JOINT lowerneck
				{
					OFFSET 0 0 0
					CHANNELS 3 Zrotation Yrotation Xrotation
					JOINT Neck
					{
						OFFSET -0.04202 1.66908 0.23524
						CHANNELS 3 Zrotation Yrotation Xrotation
						JOINT Head
						{
							OFFSET 0.07510 1.69357 -0.24440
							CHANNELS 3 Zrotation Yrotation Xrotation
							End Site
							{
								OFFSET 0.02556 1.71719 -0.11000
							}
						}
					}
				}
				JOINT LeftCollar
				{
					OFFSET 0 0 0
					CHANNELS 3 Zrotation Yrotation Xrotation
					JOINT LeftShoulder
					{
						OFFSET 3.67168 1.26306 -0.41342
CHANNELS 3 Zrotation Xrotation Yrotation
						JOINT LeftElbow
						{
OFFSET 0 -4.685100 -0.000000
CHANNELS 3 Zrotation Xrotation Yrotation
							JOINT LeftWrist
							{
OFFSET 0 -3.396260 -0.000000
CHANNELS 3 Zrotation Xrotation Yrotation
								JOINT lhand
								{
									OFFSET 0 0 0
CHANNELS 3 Zrotation Xrotation Yrotation
									JOINT LFingers
									{
OFFSET 0 -0.486080 -0.000000
CHANNELS 3 Zrotation Xrotation Yrotation
										End Site
										{
OFFSET 0 -0.391890 -0.000000
										}
									}
								}
								JOINT LThumb
								{
OFFSET 0 0.000000 0.000000
CHANNELS 3 Zrotation Xrotation Yrotation
									End Site
									{
OFFSET 0 -0.397870 0.397870
									}
								}
							}
						}
					}
				}
				JOINT RightCollar
				{
					OFFSET 0 0 0
					CHANNELS 3 Zrotation Yrotation Xrotation
					JOINT RightShoulder
					{
						OFFSET -3.04136 1.42992 -0.76390
CHANNELS 3 Zrotation Xrotation Yrotation
						JOINT RightElbow
						{
OFFSET 0 -5.555760 -0.000000
CHANNELS 3 Zrotation Xrotation Yrotation
							JOINT RightWrist
							{
OFFSET 0 -3.327740 -0.000000
CHANNELS 3 Zrotation Xrotation Yrotation
								JOINT rhand
								{
									OFFSET 0 0 0
CHANNELS 3 Zrotation Xrotation Yrotation
									JOINT RFingers
									{
OFFSET 0 -0.507630 -0.000000
CHANNELS 3 Zrotation Xrotation Yrotation
										End Site
										{
OFFSET 0 -0.409260 -0.000000
										}
									}
								}
								JOINT RThumb
								{
OFFSET 0 0.000000 0.000000
CHANNELS 3 Zrotation Xrotation Yrotation
									End Site
									{
OFFSET 0 -0.415510 0.415510
									}
								}
							}
						}
					}
				}
			}
		}
	}
}
MOTION
Frames: 4
Frame Time: 0.008333333333333333
-8.837076 17.948062 4.726638 230.250140 -83.985247 -222.416618 0.000000 0.000000 0.000000 -14.617027 -10.994708 -19.683240 1.275264 7.156964 20.181312 0.058690 2.081998 -5.836592 0.000098 -0.071533 -0.196645 0.000000 0.000000 0.000000 22.855623 1.181883 -12.423179 -6.783741 -15.146900 48.051430 0.097469 -6.243908 0.817234 -0.002223 -0.302371 0.830817 2.555710 2.855725 -1.230100 1.699852 3.778559 -1.874696 0.322218 1.852974 -1.183306 -4.480341 -1.711097 -19.145880 6.882982 -2.604128 17.245930 2.739759 -0.809961 8.693004 0.000000 0.000000 0.000000 2.479395 6.992898 17.090477 9.973820 -16.698554 1.467461 5.931076 44.835031 -21.728750 0.000000 0.000000 0.000000 -7.125000 0.000000 0.000000 -22.637242 50.393042 3.149661 0.000000 0.000000 0.000000 -6.341006 8.065422 -33.984246 -6.621711 -11.294958 -0.655537 -14.854544 54.818163 32.492660 0.000000 0.000000 0.000000 7.125000 0.000000 0.000000 20.837197 62.161616 -8.903279
-9.019516 17.959785 4.737273 227.752347 -84.135582 -220.029710 0.000000 0.000000 0.000000 -15.217814 -10.690538 -18.873355 1.264411 7.127693 20.094365 0.071676 1.768197 -6.033633 0.000021 0.025093 0.068944 0.000000 0.000000 0.000000 22.311104 1.449661 -13.534494 -7.174249 -15.476427 49.529672 0.114169 -6.879277 1.113051 -0.003305 -0.373329 1.025840 2.265064 2.561066 -1.144642 1.684381 3.391276 -1.861095 0.462036 1.663576 -1.237318 -4.285172 -1.496468 -19.175864 6.720722 -2.337295 17.386152 2.688531 -0.687619 8.724553 0.000000 0.000000 0.000000 2.896695 6.551937 17.280622 9.921008 -16.615924 1.452304 6.407848 45.279968 -21.947071 0.000000 0.000000 0.000000 -7.125000 0.000000 0.000000 -22.304979 50.669038 3.255859 0.000000 0.000000 0.000000 -6.772305 9.119966 -33.807879 -6.721140 -11.459418 -0.675202 -14.517379 53.645422 32.402660 0.000000 0.000000 0.000000 7.125000 0.000000 0.000000 21.123453 61.993768 -8.947713
-9.200218 17.971497 4.747263 225.316374 -84.293052 -217.703644 0.000000 0.000000 0.000000 -15.809475 -10.386774 -18.047480 1.249243 7.086167 19.971077 0.084761 1.451696 -6.235923 0.000358 0.114232 0.313870 0.000000 0.000000 0.000000 21.779772 1.714193 -14.669396 -7.548938 -15.776594 50.920209 0.133454 -7.499990 1.319027 -0.004934 -0.454027 1.247556 1.974999 2.263254 -1.053701 1.670879 2.999432 -1.847464 0.604744 1.471951 -1.291108 -4.091961 -1.289683 -19.199299 6.555850 -2.080373 17.527744 2.635462 -0.570666 8.757085 0.000000 0.000000 0.000000 3.329671 6.080140 17.448718 9.868915 -16.534232 1.437452 6.862435 45.727534 -22.180878 0.000000 0.000000 0.000000 -7.125000 0.000000 0.000000 -21.999714 50.957321 3.368394 0.000000 0.000000 0.000000 -7.220237 10.120541 -33.507479 -6.826630 -11.633507 -0.696266 -14.200871 52.373165 32.334319 0.000000 0.000000 0.000000 7.125000 0.000000 0.000000 21.404880 61.851576 -9.000879
-9.379231 17.983067 4.756658 222.934997 -84.458366 -215.431357 0.000000 0.000000 0.000000 -16.389289 -10.084029 -17.211968 1.230297 7.034225 19.816871 0.097911 1.136456 -6.442741 0.000882 0.185920 0.510685 0.000000 0.000000 0.000000 21.263256 1.974463 -15.821728 -7.902059 -16.046051 52.208043 0.155943 -8.106777 1.433779 -0.007142 -0.545293 1.498387 1.685696 1.963987 -0.958450 1.659346 2.605015 -1.832908 0.750732 1.279095 -1.342869 -3.909883 -1.094015 -19.223185 6.395332 -1.836583 17.673536 2.584083 -0.460241 8.793106 0.000000 0.000000 0.000000 3.777721 5.575346 17.592117 9.817429 -16.453495 1.422808 7.290383 46.175049 -22.415157 0.000000 0.000000 0.000000 -7.125000 0.000000 0.000000 -21.718648 51.243479 3.479133 0.000000 0.000000 0.000000 -7.681250 11.059203 -33.128012 -6.935871 -11.813626 -0.718516 -13.915128 51.043265 32.288859 0.000000 0.000000 0.000000 7.125000 0.000000 0.000000 21.672333 61.738608 -9.061136
